<mxfile host="app.diagrams.net" modified="2023-01-22T15:10:58.123Z" agent="5.0 (Windows NT 10.0; Win64; x64) AppleWebKit/537.36 (KHTML, like Gecko) Chrome/108.0.0.0 Safari/537.36" etag="QADLgydB3fjTv4dAyQVT" version="20.3.6" type="github">
  <diagram id="LOZpkH9pUrBxVV3QFYWw" name="Страница 1">
    <mxGraphModel dx="2181" dy="756" grid="1" gridSize="10" guides="1" tooltips="1" connect="1" arrows="1" fold="1" page="1" pageScale="1" pageWidth="827" pageHeight="1169" math="0" shadow="0">
      <root>
        <mxCell id="0" />
        <mxCell id="1" parent="0" />
        <mxCell id="xLKUacRRZhJlfv9Wrz5U-1" value="VPC" style="sketch=0;outlineConnect=0;gradientColor=none;html=1;whiteSpace=wrap;fontSize=12;fontStyle=0;shape=mxgraph.aws4.group;grIcon=mxgraph.aws4.group_vpc;strokeColor=#879196;fillColor=none;verticalAlign=top;align=left;spacingLeft=30;fontColor=#879196;dashed=0;" vertex="1" parent="1">
          <mxGeometry x="850" y="140" width="460" height="380" as="geometry" />
        </mxCell>
        <mxCell id="xLKUacRRZhJlfv9Wrz5U-2" value="Public subnet" style="points=[[0,0],[0.25,0],[0.5,0],[0.75,0],[1,0],[1,0.25],[1,0.5],[1,0.75],[1,1],[0.75,1],[0.5,1],[0.25,1],[0,1],[0,0.75],[0,0.5],[0,0.25]];outlineConnect=0;gradientColor=none;html=1;whiteSpace=wrap;fontSize=12;fontStyle=0;container=1;pointerEvents=0;collapsible=0;recursiveResize=0;shape=mxgraph.aws4.group;grIcon=mxgraph.aws4.group_security_group;grStroke=0;strokeColor=#248814;fillColor=#E9F3E6;verticalAlign=top;align=left;spacingLeft=30;fontColor=#248814;dashed=0;" vertex="1" parent="1">
          <mxGeometry x="260" y="200" width="230" height="130" as="geometry" />
        </mxCell>
        <mxCell id="xLKUacRRZhJlfv9Wrz5U-8" value="" style="outlineConnect=0;dashed=0;verticalLabelPosition=bottom;verticalAlign=top;align=center;html=1;shape=mxgraph.aws3.vpc_nat_gateway;fillColor=#F58534;gradientColor=none;" vertex="1" parent="xLKUacRRZhJlfv9Wrz5U-2">
          <mxGeometry x="127.25" y="20" width="69" height="72" as="geometry" />
        </mxCell>
        <mxCell id="xLKUacRRZhJlfv9Wrz5U-19" value="BastionHost" style="outlineConnect=0;dashed=0;verticalLabelPosition=bottom;verticalAlign=top;align=center;html=1;shape=mxgraph.aws3.ec2;fillColor=#F58534;gradientColor=none;" vertex="1" parent="xLKUacRRZhJlfv9Wrz5U-2">
          <mxGeometry x="10" y="29" width="76.5" height="93" as="geometry" />
        </mxCell>
        <mxCell id="xLKUacRRZhJlfv9Wrz5U-3" value="Private subnet" style="points=[[0,0],[0.25,0],[0.5,0],[0.75,0],[1,0],[1,0.25],[1,0.5],[1,0.75],[1,1],[0.75,1],[0.5,1],[0.25,1],[0,1],[0,0.75],[0,0.5],[0,0.25]];outlineConnect=0;gradientColor=none;html=1;whiteSpace=wrap;fontSize=12;fontStyle=0;container=1;pointerEvents=0;collapsible=0;recursiveResize=0;shape=mxgraph.aws4.group;grIcon=mxgraph.aws4.group_security_group;grStroke=0;strokeColor=#147EBA;fillColor=#E6F2F8;verticalAlign=top;align=left;spacingLeft=30;fontColor=#147EBA;dashed=0;" vertex="1" parent="1">
          <mxGeometry x="270" y="370" width="230" height="130" as="geometry" />
        </mxCell>
        <mxCell id="xLKUacRRZhJlfv9Wrz5U-10" value="EKS - Node - 1" style="outlineConnect=0;dashed=0;verticalLabelPosition=bottom;verticalAlign=top;align=center;html=1;shape=mxgraph.aws3.ec2;fillColor=#F58534;gradientColor=none;" vertex="1" parent="xLKUacRRZhJlfv9Wrz5U-3">
          <mxGeometry x="113.5" y="30" width="76.5" height="93" as="geometry" />
        </mxCell>
        <mxCell id="xLKUacRRZhJlfv9Wrz5U-20" value="MongoDB" style="sketch=0;points=[[0,0,0],[0.25,0,0],[0.5,0,0],[0.75,0,0],[1,0,0],[0,1,0],[0.25,1,0],[0.5,1,0],[0.75,1,0],[1,1,0],[0,0.25,0],[0,0.5,0],[0,0.75,0],[1,0.25,0],[1,0.5,0],[1,0.75,0]];outlineConnect=0;fontColor=#232F3E;gradientColor=#4D72F3;gradientDirection=north;fillColor=#3334B9;strokeColor=#ffffff;dashed=0;verticalLabelPosition=bottom;verticalAlign=top;align=center;html=1;fontSize=12;fontStyle=0;aspect=fixed;shape=mxgraph.aws4.resourceIcon;resIcon=mxgraph.aws4.rds;" vertex="1" parent="xLKUacRRZhJlfv9Wrz5U-3">
          <mxGeometry x="10" y="45" width="78" height="78" as="geometry" />
        </mxCell>
        <mxCell id="xLKUacRRZhJlfv9Wrz5U-4" value="" style="dashed=0;outlineConnect=0;html=1;align=center;labelPosition=center;verticalLabelPosition=bottom;verticalAlign=top;shape=mxgraph.webicons.github;gradientColor=#DFDEDE" vertex="1" parent="1">
          <mxGeometry x="-50" y="180" width="102.4" height="102.4" as="geometry" />
        </mxCell>
        <mxCell id="xLKUacRRZhJlfv9Wrz5U-5" value="" style="sketch=0;aspect=fixed;html=1;points=[];align=center;image;fontSize=12;image=img/lib/mscae/Docker.svg;" vertex="1" parent="1">
          <mxGeometry x="20" y="40" width="110" height="90.2" as="geometry" />
        </mxCell>
        <mxCell id="xLKUacRRZhJlfv9Wrz5U-6" value="Public subnet" style="points=[[0,0],[0.25,0],[0.5,0],[0.75,0],[1,0],[1,0.25],[1,0.5],[1,0.75],[1,1],[0.75,1],[0.5,1],[0.25,1],[0,1],[0,0.75],[0,0.5],[0,0.25]];outlineConnect=0;gradientColor=none;html=1;whiteSpace=wrap;fontSize=12;fontStyle=0;container=1;pointerEvents=0;collapsible=0;recursiveResize=0;shape=mxgraph.aws4.group;grIcon=mxgraph.aws4.group_security_group;grStroke=0;strokeColor=#248814;fillColor=#E9F3E6;verticalAlign=top;align=left;spacingLeft=30;fontColor=#248814;dashed=0;" vertex="1" parent="1">
          <mxGeometry x="580" y="200" width="130" height="130" as="geometry" />
        </mxCell>
        <mxCell id="xLKUacRRZhJlfv9Wrz5U-9" value="" style="outlineConnect=0;dashed=0;verticalLabelPosition=bottom;verticalAlign=top;align=center;html=1;shape=mxgraph.aws3.vpc_nat_gateway;fillColor=#F58534;gradientColor=none;" vertex="1" parent="xLKUacRRZhJlfv9Wrz5U-6">
          <mxGeometry x="30.5" y="29" width="69" height="72" as="geometry" />
        </mxCell>
        <mxCell id="xLKUacRRZhJlfv9Wrz5U-7" value="Private subnet" style="points=[[0,0],[0.25,0],[0.5,0],[0.75,0],[1,0],[1,0.25],[1,0.5],[1,0.75],[1,1],[0.75,1],[0.5,1],[0.25,1],[0,1],[0,0.75],[0,0.5],[0,0.25]];outlineConnect=0;gradientColor=none;html=1;whiteSpace=wrap;fontSize=12;fontStyle=0;container=1;pointerEvents=0;collapsible=0;recursiveResize=0;shape=mxgraph.aws4.group;grIcon=mxgraph.aws4.group_security_group;grStroke=0;strokeColor=#147EBA;fillColor=#E6F2F8;verticalAlign=top;align=left;spacingLeft=30;fontColor=#147EBA;dashed=0;" vertex="1" parent="1">
          <mxGeometry x="580" y="370" width="130" height="130" as="geometry" />
        </mxCell>
        <mxCell id="xLKUacRRZhJlfv9Wrz5U-11" value="EKS - Node - 2" style="outlineConnect=0;dashed=0;verticalLabelPosition=bottom;verticalAlign=top;align=center;html=1;shape=mxgraph.aws3.ec2;fillColor=#F58534;gradientColor=none;" vertex="1" parent="xLKUacRRZhJlfv9Wrz5U-7">
          <mxGeometry x="26.75" y="30" width="76.5" height="93" as="geometry" />
        </mxCell>
        <mxCell id="xLKUacRRZhJlfv9Wrz5U-12" value="" style="rounded=1;arcSize=10;dashed=1;strokeColor=#F59D56;fillColor=none;gradientColor=none;dashPattern=8 4;strokeWidth=2;" vertex="1" parent="1">
          <mxGeometry x="870" y="630" width="199.5" height="199.5" as="geometry" />
        </mxCell>
        <mxCell id="xLKUacRRZhJlfv9Wrz5U-13" style="edgeStyle=orthogonalEdgeStyle;rounded=0;orthogonalLoop=1;jettySize=auto;html=1;" edge="1" parent="1" source="xLKUacRRZhJlfv9Wrz5U-10" target="xLKUacRRZhJlfv9Wrz5U-8">
          <mxGeometry relative="1" as="geometry" />
        </mxCell>
        <mxCell id="xLKUacRRZhJlfv9Wrz5U-14" style="edgeStyle=orthogonalEdgeStyle;rounded=0;orthogonalLoop=1;jettySize=auto;html=1;" edge="1" parent="1" source="xLKUacRRZhJlfv9Wrz5U-11" target="xLKUacRRZhJlfv9Wrz5U-9">
          <mxGeometry relative="1" as="geometry" />
        </mxCell>
        <mxCell id="xLKUacRRZhJlfv9Wrz5U-15" value="" style="aspect=fixed;perimeter=ellipsePerimeter;html=1;align=center;shadow=0;dashed=0;spacingTop=3;image;image=img/lib/active_directory/internet_globe.svg;" vertex="1" parent="1">
          <mxGeometry x="500" y="20" width="50" height="50" as="geometry" />
        </mxCell>
        <mxCell id="xLKUacRRZhJlfv9Wrz5U-16" value="" style="outlineConnect=0;dashed=0;verticalLabelPosition=bottom;verticalAlign=top;align=center;html=1;shape=mxgraph.aws3.internet_gateway;fillColor=#F58534;gradientColor=none;" vertex="1" parent="1">
          <mxGeometry x="500" y="90" width="50" height="50" as="geometry" />
        </mxCell>
        <mxCell id="xLKUacRRZhJlfv9Wrz5U-17" style="edgeStyle=orthogonalEdgeStyle;rounded=0;orthogonalLoop=1;jettySize=auto;html=1;entryX=1;entryY=0.5;entryDx=0;entryDy=0;entryPerimeter=0;" edge="1" parent="1" source="xLKUacRRZhJlfv9Wrz5U-9" target="xLKUacRRZhJlfv9Wrz5U-16">
          <mxGeometry relative="1" as="geometry">
            <Array as="points">
              <mxPoint x="645" y="115" />
            </Array>
          </mxGeometry>
        </mxCell>
        <mxCell id="xLKUacRRZhJlfv9Wrz5U-18" style="edgeStyle=orthogonalEdgeStyle;rounded=0;orthogonalLoop=1;jettySize=auto;html=1;entryX=0;entryY=0.5;entryDx=0;entryDy=0;entryPerimeter=0;" edge="1" parent="1" source="xLKUacRRZhJlfv9Wrz5U-8" target="xLKUacRRZhJlfv9Wrz5U-16">
          <mxGeometry relative="1" as="geometry">
            <Array as="points">
              <mxPoint x="422" y="115" />
            </Array>
          </mxGeometry>
        </mxCell>
        <mxCell id="xLKUacRRZhJlfv9Wrz5U-21" value="" style="sketch=0;points=[[0,0,0],[0.25,0,0],[0.5,0,0],[0.75,0,0],[1,0,0],[0,1,0],[0.25,1,0],[0.5,1,0],[0.75,1,0],[1,1,0],[0,0.25,0],[0,0.5,0],[0,0.75,0],[1,0.25,0],[1,0.5,0],[1,0.75,0]];outlineConnect=0;fontColor=#232F3E;gradientColor=#F78E04;gradientDirection=north;fillColor=#D05C17;strokeColor=#ffffff;dashed=0;verticalLabelPosition=bottom;verticalAlign=top;align=center;html=1;fontSize=12;fontStyle=0;aspect=fixed;shape=mxgraph.aws4.resourceIcon;resIcon=mxgraph.aws4.eks;" vertex="1" parent="1">
          <mxGeometry x="490" y="520" width="78" height="78" as="geometry" />
        </mxCell>
      </root>
    </mxGraphModel>
  </diagram>
</mxfile>
